<svg width="331" height="223" viewBox="0 0 331 223" fill="none" xmlns="http://www.w3.org/2000/svg">
<path d="M166.305 71.8512C160.765 57.8752 156.54 42.7347 150.956 29.1022C146.682 19.3377 139.413 9.17614 127.988 7.85564C124.587 7.46264 112.446 6.78714 117.925 0.746141C122.743 -0.252358 141.331 0.288653 147.116 0.267153L186.715 0.275652C191.2 0.284652 202.52 -1.01485 205.38 1.95265C205.895 3.82115 205.965 2.95165 205.305 4.65865C199.15 10.2026 176.81 5.50114 180.815 25.2956C182.295 32.5941 184.955 39.4001 187.315 46.4516L198.78 80.5181C210.345 115.099 221.705 150.706 233.68 185.06C234.735 180.036 237.725 172.938 239.61 167.915L250.225 139.587L286.635 41.2966C290.095 32.4627 293.43 25.6361 293.9 16.1226C288.285 3.44514 274.785 10.4436 270.9 4.23714C271.12 1.89864 272.855 0.0171506 275.135 0.0836506C291.295 0.554651 307.505 0.0466434 323.67 0.298143C325.76 0.330643 330.205 0.978144 330.14 3.62364C325.605 10.4031 311.585 4.08414 304.43 20.0731C299.045 32.0961 294.795 44.8312 290.205 57.1937C276.68 93.6342 263.01 130.027 249.61 166.505L237.305 200.014C235.16 205.785 232.96 211.821 230.53 217.484C229.665 219.479 228.23 221.107 225.99 221.566C219.76 222.846 217.745 220.654 215.87 215.379C212.695 206.472 209.81 197.718 206.78 188.88L190.915 142.866C184.705 124.573 175.545 100.398 170.45 82.4657C169.34 87.5672 165.8 95.2311 163.65 100.216C160.07 108.409 156.565 116.634 153.135 124.891C144 147.499 134.675 170.031 125.164 192.484C121.769 200.606 118.261 210.719 113.823 218.353C110.838 223.003 103.756 223.837 101.263 218.417C95.5302 205.951 91.2372 191.65 86.7947 178.74L52.3002 79.9351L42.2362 51.4682C36.7587 35.6322 31.5592 13.0657 13.1462 8.04915C8.52818 6.79115 4.54317 7.95665 0.604675 4.79265C-0.160325 3.23315 -0.141323 3.98216 0.337677 2.48516C2.48218 0.362155 4.33867 0.370145 7.25317 0.225145L57.0087 0.269655C65.4567 0.233655 74.2937 0.0931545 82.7547 0.312655C84.7137 0.363655 85.0507 0.606154 86.3937 1.63365C87.1702 3.57165 87.0492 2.60216 86.8032 4.65166C84.5812 7.65366 73.5452 6.65814 65.6457 12.0496L65.0842 12.4386L64.5017 13.5511C62.8152 16.8381 62.3747 19.6562 63.2897 23.2652C67.2432 38.8582 73.5312 54.7386 78.6067 70.0206C91.8157 108.98 104.804 148.014 117.572 187.121C123.186 174.982 128.403 161.44 133.514 149.048L153.925 100.61C157.755 91.5131 162.065 80.6017 166.305 71.8512Z" fill="#145B9A"/>
</svg>
